<?xml version="1.0" standalone="no"?><!DOCTYPE svg PUBLIC "-//W3C//DTD SVG 1.1//EN" "http://www.w3.org/Graphics/SVG/1.1/DTD/svg11.dtd"><svg t="1584701228439" class="icon" viewBox="0 0 1024 1024" version="1.1" xmlns="http://www.w3.org/2000/svg" p-id="9250" xmlns:xlink="http://www.w3.org/1999/xlink" width="200" height="200"><defs><style type="text/css"></style></defs><path d="M 512 973.059 c -123.733 0 -240.097 -47.9677 -327.628 -134.982 c -87.5313 -87.1434 -135.758 -202.99 -135.758 -326.335 c 0 -123.216 48.2263 -239.192 135.758 -326.206 C 271.903 98.3919 388.267 50.4242 512 50.4242 s 240.097 47.9677 327.628 134.982 c 87.5313 87.1434 135.758 202.99 135.758 326.206 c 0 123.345 -48.2263 239.192 -135.758 326.335 S 635.733 973.059 512 973.059 Z m 0 -856.436 c -106.149 0 -205.964 41.1152 -280.954 115.846 c -74.9899 74.602 -116.234 173.77 -116.234 279.402 s 41.2444 204.8 116.234 279.273 c 74.9899 74.7313 174.804 115.717 280.954 115.717 c 106.149 0 205.964 -41.1152 280.954 -115.717 s 116.234 -173.899 116.234 -279.402 s -41.2444 -204.671 -116.234 -279.273 c -74.9899 -74.7313 -174.804 -115.846 -280.954 -115.846 Z m 43.1838 362.02 H 280.307 c -18.2303 0 -33.099 14.8687 -33.099 33.099 c 0 18.2303 14.8687 33.099 33.099 33.099 h 274.877 m -10.0848 0 h 198.594 c 18.3596 0 33.099 -14.8687 33.099 -33.099 c 0 -18.2303 -14.7394 -33.099 -33.099 -33.099 H 545.099 m 198.594 0" fill="#0099ff" p-id="9251"></path></svg>