<?xml version="1.0" standalone="no"?><!DOCTYPE svg PUBLIC "-//W3C//DTD SVG 1.1//EN" "http://www.w3.org/Graphics/SVG/1.1/DTD/svg11.dtd"><svg t="1584701202513" class="icon" viewBox="0 0 1024 1024" version="1.1" xmlns="http://www.w3.org/2000/svg" p-id="8980" xmlns:xlink="http://www.w3.org/1999/xlink" width="200" height="200"><defs><style type="text/css"></style></defs><path d="M512 68.1c-247 0-448 201-448 448s201 448 448 448 448-201 448-448-201-448-448-448z m0 844c-218.4 0-396-177.6-396-396s177.6-396 396-396 396 177.6 396 396-177.6 396-396 396z" fill="#4097E8" p-id="8981"></path><path d="M779 490.1H546c-4.4 0-8-3.6-8-8v-233c0-4.4-3.6-8-8-8h-36c-4.4 0-8 3.6-8 8v233c0 4.4-3.6 8-8 8H245c-4.4 0-8 3.6-8 8v36c0 4.4 3.6 8 8 8h233c4.4 0 8 3.6 8 8v233c0 4.4 3.6 8 8 8h36c4.4 0 8-3.6 8-8v-233c0-4.4 3.6-8 8-8h233c4.4 0 8-3.6 8-8v-36c0-4.4-3.6-8-8-8z" fill="#4097E8" p-id="8982"></path></svg>